<?xml version="1.0" encoding="UTF-8"?>
<svg id="FC_Wolhusen_sw_Bild" data-name="FC_Wolhusen_sw Bild" xmlns="http://www.w3.org/2000/svg" version="1.1" viewBox="0 0 204.96 187.86">
  <defs>
    <style>
      .cls-1 {
        fill: #fff;
        stroke-width: 0px;
      }
    </style>
  </defs>
  <path class="cls-1" d="M180.15,144.87c0-.18,0-.36-.03-.54-.14-.88.15-1.66.61-2.37,1.28-1.98,2.46-4.01,3.53-6.12.96-1.88,1.86-3.79,2.75-5.71.69-1.5,1.31-3.03,1.96-4.56.08-.2.12-.42.18-.63.22-.7.44-1.4.75-2.08.47-1.02.75-2.1,1.03-3.18.44-1.68.96-3.33,1.37-5.02.26-1.08.56-2.15.71-3.27.17-1.28.48-2.54.7-3.82.21-1.18.45-2.35.54-3.54.12-1.63.45-3.23.43-4.88-.02-1.31.16-2.63.18-3.94.03-1.43.05-2.87.02-4.31-.04-1.65-.23-3.29-.25-4.95,0-.28-.07-.55-.11-.83-.15-1.05-.14-2.1-.22-3.15-.01-.2,0-.4-.04-.6-.55-2.49-.84-5.03-1.42-7.51-.3-1.28-.65-2.55-1.01-3.82-.3-1.03-.51-2.09-.86-3.11-.43-1.26-.8-2.55-1.19-3.82-.31-1.01-.78-1.97-1.09-2.98-.7-2.22-1.7-4.3-2.71-6.38-.49-1-.94-2.03-1.5-3-1.32-2.28-2.54-4.61-3.99-6.82-1.31-1.99-2.68-3.92-4-5.9-.1-.15-.21-.3-.33-.42-.35-.34-.67-.7-.91-1.11-.51-.9-1.21-1.64-1.88-2.39-1.06-1.19-2.07-2.43-3.28-3.48-.33-.28-.57-.67-.88-.98-1.3-1.24-2.58-2.5-3.95-3.67-.42-.36-.83-.75-1.24-1.13-1.57-1.45-3.27-2.74-4.95-4.06-.47-.37-.94-.73-1.38-1.14-.3-.29-.65-.53-1.02-.73-1.02-.55-1.91-1.31-2.88-1.95-1.13-.75-2.28-1.48-3.43-2.19-1.51-.92-3.02-1.85-4.6-2.66-1.11-.57-2.2-1.21-3.4-1.61-.36-.12-.69-.31-1.03-.49-.47-.26-.73-.65-.71-1.22.01-.46.04-.91-.05-1.37-.04-.2.04-.44.11-.64.08-.24.27-.34.52-.28.12.03.23.07.34.11,1.57.65,3.08,1.41,4.6,2.18,1.1.56,2.21,1.12,3.29,1.71.86.47,1.7.97,2.53,1.48,1.5.92,3,1.83,4.47,2.79.9.59,1.77,1.22,2.64,1.86,1.51,1.11,3.01,2.24,4.48,3.4,1.2.95,2.34,1.99,3.47,3.03.41.38.82.76,1.24,1.12.74.64,1.48,1.27,2.11,2.03.61.73,1.38,1.32,2.03,2.03.73.79,1.49,1.56,2.19,2.38.79.93,1.65,1.8,2.41,2.74,1.29,1.58,2.49,3.22,3.67,4.88,1.66,2.35,3.16,4.8,4.61,7.28,1.02,1.76,2.1,3.49,2.88,5.38.38.9.96,1.7,1.26,2.64.11.34.28.66.36,1.01.12.51.49.9.72,1.36.28.55.54,1.11.72,1.71.1.34.23.68.36,1.01.82,2.19,1.52,4.41,2.19,6.65.31,1.03.56,2.08.89,3.1.46,1.43.71,2.9,1.08,4.35.31,1.21.58,2.44.72,3.69.07.63.14,1.27.3,1.89.38,1.54.47,3.11.63,4.67.19,1.84.32,3.69.43,5.54.08,1.31.11,2.63.15,3.94.03.93-.09,1.86-.05,2.79.05,1.02,0,2.03-.06,3.04-.08,1.39-.18,2.78-.32,4.17-.15,1.46-.26,2.94-.49,4.39-.49,3.07-1.06,6.13-1.83,9.14-.43,1.66-.93,3.3-1.34,4.97-.21.83-.53,1.63-.82,2.44-.45,1.28-.88,2.56-1.37,3.82-.32.82-.7,1.61-1.03,2.42-.62,1.54-1.31,3.04-2.05,4.53-.52,1.03-1.07,2.05-1.56,3.1-.71,1.52-1.62,2.93-2.42,4.4-.9,1.65-2.02,3.16-2.95,4.79-.25.44-.6.8-.9,1.19-.07.09-.16.21-.28.19-.19-.03-.13-.22-.16-.34-.18-.88-.22-1.78-.18-2.68Z"/>
  <path class="cls-1" d="M30.82,145.19c-.02-.34.07-.68.25-1,1.05-1.97,2.15-3.92,3.35-5.81.6-.94,1.15-1.92,1.69-2.9.7-1.28,1.5-2.5,2.26-3.74,1.04-1.73,2.07-3.46,3.05-5.22.36-.64.44-1.32.33-2.03-.21-1.33.99-2.46,2.32-2.19.57.12,1.11.33,1.61.63,1.79,1.05,3.1,2.55,4.04,4.39.19.38.28.78.25,1.21-.08,1.02-.68,1.62-1.62,1.83-1.05.23-1.72.89-2.25,1.74-.81,1.28-1.68,2.53-2.41,3.86-.17.32-.36.63-.43.98-.1.45.16.77.63.8.48.03.92-.12,1.34-.3.9-.38,1.77-.84,2.47-1.54.19-.18.35-.38.49-.6.13-.2.25-.41.38-.61.57-.81.98-1.68,1.12-2.67.06-.43.24-.84.58-1.16.41-.39.87-.54,1.43-.4.72.19,1.41.49,1.97.98.86.74,1.69,1.51,2.3,2.5.33.54.77,1.01,1.04,1.59.24.52.27,1.04.09,1.57-.14.44-.42.77-.85.95-.31.13-.64.23-.98.28-.89.14-1.52.66-2.06,1.34-.96,1.21-1.6,2.62-2.38,3.93-.18.3-.3.66-.38,1-.16.68.24,1.08.93.98.71-.1,1.3-.48,1.91-.81.63-.34,1.29-.64,1.94-.93.68-.3,1.28-.72,1.83-1.23.36-.33.55-.72.57-1.21.02-.56.21-1.05.6-1.46.51-.53,1.36-.69,2.11-.36.62.28,1.15.67,1.62,1.19.49.54.86,1.15,1.25,1.75.7,1.07.62,1.84.09,2.62-.47.68-.95.85-1.76.65-.5-.13-.99-.3-1.52-.31-.56-.01-1.08.08-1.57.31-1.93.91-3.89,1.76-5.8,2.71-1.36.67-2.77,1.24-4.13,1.9-1.72.84-3.49,1.57-5.19,2.45-1.29.66-2.6,1.32-4.06,1.56-.96.15-1.63-.49-1.53-1.46.07-.7.38-1.29.77-1.86.89-1.3,1.69-2.65,2.54-3.98.6-.94,1.13-1.92,1.85-2.78.33-.39.45-.93.56-1.43.1-.48-.23-.77-.77-.71-.54.06-1.04.28-1.53.51-1.17.56-2.32,1.16-3.5,1.71-1.41.66-2.76,1.45-4.22,2-.26.1-.52.19-.79.27-.81.22-1.88-.19-1.82-1.47Z"/>
  <path class="cls-1" d="M12.7,83.01c-.03-.72.05-1.43.25-2.13.25-.85.18-1.74.36-2.6.54-2.62,1.08-5.23,1.74-7.82.49-1.91,1.09-3.79,1.57-5.71.32-1.27.8-2.51,1.25-3.74.94-2.57,2.01-5.08,3.15-7.57.71-1.54,1.58-3,2.25-4.56.28-.66.65-1.28,1.03-1.89.85-1.35,1.54-2.8,2.39-4.15,1.07-1.71,2.17-3.4,3.37-5.02.53-.72,1.02-1.48,1.58-2.18.95-1.21,1.96-2.36,2.9-3.58.92-1.19,1.9-2.32,2.98-3.35,1.2-1.14,2.2-2.47,3.51-3.51.69-.54,1.26-1.22,1.9-1.83,1.11-1.07,2.3-2.04,3.48-3.02,1.47-1.22,2.97-2.43,4.47-3.61.95-.75,2-1.32,2.99-1.99,1.76-1.19,3.58-2.26,5.38-3.36,1.14-.7,2.35-1.27,3.55-1.86,1.11-.55,2.21-1.11,3.3-1.69.92-.49,1.88-.88,2.88-1.18.52-.16.71-.02.74.52.03.44.02.88,0,1.32-.02.47-.22.85-.62,1.1-.41.25-.82.5-1.25.7-1.87.86-3.69,1.79-5.49,2.79-1.01.56-1.99,1.19-3.06,1.64-.39.17-.67.49-1.02.73-1.06.71-2.18,1.33-3.21,2.09-1.38,1.02-2.78,2.01-4.14,3.06-2.12,1.63-4.11,3.42-6.16,5.14-1.64,1.37-3.08,2.96-4.56,4.49-1.03,1.06-2.05,2.13-3,3.26-1.36,1.61-2.76,3.21-3.9,5-.05.08-.11.17-.17.25-1.15,1.46-2.09,3.06-3.14,4.59-1.08,1.59-2.03,3.25-2.94,4.94-.92,1.72-1.89,3.42-2.7,5.2-.52,1.16-1.13,2.29-1.63,3.47-.12.28-.23.55-.34.83-.62,1.62-1.25,3.24-1.87,4.86-.04.11-.09.22-.12.34-.7,2.33-1.47,4.64-2.09,6.99-.39,1.5-.76,3.01-1.03,4.54-.2,1.12-.5,2.22-.67,3.34-.29,1.87-.52,3.75-.77,5.62-.03.2-.04.39-.11.59-.08.21-.22.33-.43.38-.75.16-1.5.1-2.25-.05-.26-.05-.37-.22-.36-.47,0-.3,0-.6,0-.9Z"/>
  <path class="cls-1" d="M81.73,153.21c.58.02,1.16-.04,1.73.09.7.15.91.42.8,1.13-.07.45-.18.9-.29,1.34-.44,1.86-.88,3.71-1.34,5.56-.1.4-.07.79-.09,1.19-.02.33.08.61.4.73.3.11.6.03.83-.2.41-.42.91-.71,1.4-1.03.73-.47,1.52-.66,2.33-.32,1.23.51,2.19,1.3,2.41,2.73,0,.06,0,.13.03.18.61,1.01.28,2.06.14,3.09-.23,1.56-.66,3.08-.98,4.62-.24,1.13-.49,2.25-.77,3.38-.19.77-.2,1.54-.02,2.31.07.29.14.58.19.88.18.9-.48,1.76-1.4,1.76-1.59,0-3.15-.17-4.53-1.06-.34-.22-.66-.44-.89-.79-.36-.55-.33-1.08.03-1.61.19-.28.4-.55.58-.83.54-.83.9-1.72,1.11-2.68.28-1.26.63-2.51.87-3.79.12-.65.19-1.3.22-1.96.03-.52-.13-.98-.42-1.41-.47-.7-1.37-.83-2.03-.29-.45.37-.69.86-.89,1.39-.5,1.33-.76,2.72-1.11,4.09-.07.29-.13.58-.21.87-.32,1.17-.42,2.35-.2,3.55.04.23.04.48.01.72-.1.96-.7,1.52-1.67,1.52-1.63,0-3.16-.37-4.56-1.23-.42-.26-.75-.6-.99-1.02-.34-.59-.29-1.09.16-1.59.07-.07.13-.16.21-.21,1.16-.79,1.57-2.04,1.95-3.27.83-2.62,1.47-5.3,2.08-7.98.3-1.32.63-2.63.85-3.97.08-.5.09-.99.09-1.49,0-.39-.14-.74-.33-1.08-.14-.26-.29-.53-.4-.8-.24-.58-.06-1.16.43-1.57.63-.52,1.38-.69,2.16-.8.69-.1,1.38-.17,2.08-.13Z"/>
  <path class="cls-1" d="M32.06,103.55c1.36-.12,2.67.09,3.93.57,1.92.73,3.74,1.61,4.95,3.39,1,1.47,1.36,3.08,1.01,4.82-.18.9-.22,1.75.11,2.64.31.82-.17,1.52-.74,2.01-1.52,1.3-3.24,2.26-5.25,2.6-.69.12-1.39.11-2.06-.18-1.08-.47-1.34-1.45-.65-2.39.16-.21.32-.4.53-.56.74-.55,1.38-1.22,2.01-1.88.8-.84,1.23-1.87,1.26-3.02.02-.94-.39-1.64-1.21-2.19-1.17-.79-2.43-.82-3.67-.49-1.77.47-3.48,1.13-5,2.23-.79.57-1.63,1.09-2.31,1.8-.88.93-1.56,2.01-1.78,3.27-.18,1.08.02,2.14.87,2.97.22.22.34.52.58.74.51.46,1.1.79,1.68,1.14.67.4.7.81.06,1.27-.68.48-1.46.75-2.29.81-.62.05-1.24.06-1.86-.03-.69-.09-1.28-.35-1.78-.87-.55-.58-1.17-1.08-1.78-1.59-.92-.78-1.69-1.69-1.93-2.93-.09-.45-.26-.89-.29-1.34-.09-1.35.04-2.67.67-3.9.26-.51.44-1.06.73-1.57.85-1.48,1.98-2.69,3.43-3.6.35-.22.66-.52,1-.75.98-.65,2.03-1.18,3.14-1.58.5-.18.98-.42,1.5-.58,1.07-.33,2.16-.54,3.26-.73.62-.1,1.24-.01,1.85-.05Z"/>
  <path class="cls-1" d="M38.78,89.68c-.09,1.48.05,2.95.18,4.42.11,1.29.19,2.58.38,3.86.07.47.14.95.28,1.4.18.58-.01,1.02-.5,1.34-.91.59-1.89,1.03-2.96,1.26-.68.15-1.35.34-2.07.28-.46-.04-.91-.12-1.29-.41-.43-.32-.48-.63-.18-1.08.16-.24.4-.39.61-.57.59-.51,1.18-1.01,1.62-1.67.83-1.22.98-2.55.64-3.95-.13-.54-.49-.91-1.06-1.02-.14-.03-.27-.07-.41-.08-1.24-.04-2.47-.14-3.7.08-.22.04-.43.09-.63.19-.63.29-.88.79-.8,1.58.06.57.52,1.03,1.14,1.14.24.04.47.06.71.11.23.05.47.1.69.2.32.15.6.36.6.75,0,.37-.26.57-.56.71-.87.42-1.78.72-2.73.83-1.43.17-2.85.3-4.29.3-.72,0-1.43-.1-2.13-.27-.28-.07-.53-.18-.73-.38-.3-.31-.3-.6.05-.86.32-.25.69-.39,1.1-.44.7-.08,1.3-.34,1.78-.89.3-.35.44-.75.42-1.21-.02-.49-.32-.86-.8-1-.65-.19-1.32-.15-1.96-.08-1.13.13-2.25.31-3.36.57-.89.21-1.57.66-1.92,1.54-.24.61-.73.86-1.37.86-.63,0-1.11-.24-1.41-.83-.41-.82-.55-1.71-.69-2.59-.15-.88-.31-1.78-.3-2.66.02-.97-.06-1.96.21-2.91.22-.81.71-1.37,1.59-1.51.46-.07.82.05,1.09.43.07.1.13.2.18.31.47,1.03,1.33,1.45,2.41,1.44.78,0,1.55-.04,2.33-.09,1.97-.15,3.93-.35,5.89-.46,1.26-.07,2.49-.32,3.73-.45.55-.06,1.11-.11,1.67-.14.81-.04,1.57-.28,2.31-.58.47-.19.84-.52,1.12-.96.2-.33.47-.6.83-.75.83-.33,1.92.11,2.16,1.03.14.53.11,1.07.11,1.61,0,.54,0,1.08,0,1.62Z"/>
  <path class="cls-1" d="M149.39,169.87c-.78,0-1.47-.53-1.66-1.3-.08-.33-.15-.67-.14-1,.03-1-.4-1.86-.83-2.71-.39-.78-.8-1.56-1.21-2.33-.57-1.08-1.24-2.1-2.08-2.99-.34-.35-.75-.5-1.24-.49-.82.02-1.36.69-1.29,1.52.1,1.17.67,2.17,1.15,3.18.49,1.04,1.12,2.03,1.65,3.06.48.93,1.16,1.66,1.98,2.29,1.21.93.88,2.13.04,2.86-1.09.94-2.31,1.69-3.78,1.95-1.18.21-2.19-.53-2.18-1.74.01-1.08-.32-2.03-.81-2.96-.84-1.59-1.63-3.2-2.51-4.76-.2-.35-.41-.69-.65-1-.35-.47-.78-.85-1.38-1.01-1.04-.26-1.51-1.4-1.15-2.37.43-1.16,1.12-2.15,1.85-3.13.26-.35.56-.68.85-1.01.56-.63,1.09-.66,1.69-.08.32.3.59.65.87.98.18.21.38.38.67.29.31-.1.49-.34.55-.66.04-.21.03-.44.06-.66.16-1.09.56-2.04,1.55-2.63,1.37-.81,3.21-.59,4.42.44,1.22,1.06,2,2.42,2.79,3.79.52.9,1,1.82,1.53,2.71.43.72.78,1.48,1.17,2.22.54,1.02,1.28,1.82,2.23,2.45.33.21.56.5.73.85.28.56.2,1.08-.13,1.58-.18.27-.41.49-.66.69-1.03.81-2.19,1.38-3.41,1.84-.21.08-.42.12-.64.13Z"/>
  <path class="cls-1" d="M93.09,175.1c.07-2.55.17-4.43.12-6.3-.02-.9-.26-1.73-.87-2.43-.2-.23-.37-.47-.42-.78-.14-.73.17-1.35.84-1.68.8-.4,1.68-.5,2.55-.61.61-.08,1.23-.11,1.85-.16.24-.02.48,0,.71.07.36.12.62.33.69.74.08.48.11.95.09,1.43-.05,1.34-.13,2.67-.17,4.01-.03,1.06-.04,2.12-.12,3.17-.08.94-.13,1.87-.06,2.81.03.44.09.87.25,1.29.08.2.17.41.3.58.45.61.98.69,1.61.28.49-.32.79-.78.92-1.35.16-.66.26-1.32.29-2.01.07-1.65.13-3.3.11-4.95,0-.3-.01-.6-.04-.9-.05-.5-.17-.97-.53-1.37-.29-.33-.5-.72-.6-1.16-.13-.58.02-1.06.53-1.41.37-.25.75-.44,1.2-.5,1.08-.15,2.16-.36,3.26-.38.83-.02,1.58.45,1.58,1.54,0,1.38-.02,2.75-.09,4.13-.06,1.09-.17,2.19-.18,3.28-.01,1.21-.13,2.41-.09,3.63.03.9.18,1.73.73,2.47.81,1.08.34,2.18-.48,2.84-.36.29-.76.5-1.21.64-.76.24-1.53.44-2.32.54-.42.05-.83-.06-1.24-.15-.29-.07-.47-.3-.56-.58-.08-.25-.15-.5-.24-.74-.24-.68-.78-.86-1.35-.43-.21.15-.4.33-.58.51-1.35,1.32-3.25,1.25-4.59.2-.8-.62-1.26-1.5-1.46-2.48-.3-1.47-.42-2.96-.41-3.78Z"/>
  <path class="cls-1" d="M72.01,149.49c1.06-.06,2.11.08,3.14.34.31.08.61.19.89.35.65.37.78.67.56,1.38-.24.79-.58,1.52-.95,2.26-.59,1.17-1.23,2.32-1.84,3.49-.95,1.82-1.77,3.7-2.7,5.54-1.02,2.01-1.97,4.06-2.86,6.12-.34.78-.43,1.57-.25,2.4.12.57.2,1.14-.23,1.64-.45.52-.99.79-1.69.69-.58-.08-1.13-.26-1.66-.47-1.06-.42-2.06-.95-3.04-1.54-.5-.3-.94-.67-1.26-1.16-.68-1.05-.13-1.93.75-2.28.13-.05.26-.1.4-.13.75-.14,1.29-.59,1.74-1.19.76-1.03,1.38-2.14,1.93-3.3.55-1.15,1.13-2.29,1.67-3.44.76-1.6,1.53-3.2,2.14-4.87.41-1.11.42-2.22-.09-3.32-.4-.85-.01-1.47.47-1.86.5-.4,1.08-.6,1.71-.64.4-.02.8,0,1.2,0Z"/>
  <path class="cls-1" d="M115.46,181.84c-.66,0-1.19-.01-1.72.12-.53.14-.98-.06-1.36-.44-.49-.49-.82-1.08-1.12-1.69-.44-.88-.73-1.81-.83-2.79-.01-.12-.01-.24,0-.36.1-.62.51-.8,1.03-.43.54.39.99.86,1.43,1.36.39.44.81.82,1.42.94.62.12,1.07-.11,1.26-.7.21-.67.12-1.24-.43-1.74-.42-.38-.9-.66-1.4-.9-2.35-1.16-3.75-3.02-4.19-5.61-.26-1.54.04-2.98.69-4.36.69-1.45,1.86-2.28,3.5-2.28.37,0,.75.03,1.13.05.37.01.71-.08,1.04-.23.76-.37,1.22-.29,1.84.3.42.39.66.9.93,1.39.31.55.62,1.11.77,1.74.09.39.07.75-.04,1.12-.19.64-.66.87-1.3.66-.34-.12-.64-.32-.92-.54-.33-.26-.65-.52-.95-.82-.27-.27-.57-.32-.92-.33-.38-.01-.54.19-.74.48-.17.25-.37.42-.35.77.02.38.18.69.43.96.45.49.94.9,1.57,1.16.98.41,1.91.93,2.71,1.63,1.06.93,1.74,2.12,2.01,3.52.28,1.4.19,2.78-.38,4.1-.55,1.28-1.37,2.3-2.79,2.67-.79.21-1.61.31-2.31.26Z"/>
  <path class="cls-1" d="M110.63,151.17c-.76-.26-1.48.11-2.23.13-.74.01-1.47-.02-2.21.05-.67.06-1.35.06-2.03-.03-.57-.08-1.16-.03-1.73-.07-1.29-.09-2.59-.12-3.88-.26-1.62-.17-3.23-.47-4.84-.74-2.19-.37-4.3-1.01-6.44-1.57-1.34-.34-2.6-.89-3.94-1.21-.81-.19-1.58-.56-2.34-.91-1.09-.5-2.22-.9-3.28-1.45-.71-.37-1.42-.72-2.09-1.16-.21-.14-.47-.2-.71-.3-1.07-.46-2.02-1.14-2.97-1.8-.46-.32-.92-.64-1.41-.9-.55-.3-1.01-.71-1.45-1.15-.21-.22-.19-.41-.02-.63.4-.54,1.09-.62,1.75-.14.6.43,1.22.84,1.87,1.19.87.48,1.63,1.13,2.51,1.58.87.45,1.69.99,2.58,1.39,1.71.77,3.38,1.61,5.12,2.32,2.13.86,4.34,1.46,6.55,2.09,2.18.61,4.39.99,6.61,1.37,1,.17,2.02.24,3.02.38,3.2.44,6.42.3,9.63.25,2.57-.04,5.12-.38,7.65-.85,1.21-.23,2.44-.38,3.62-.73,1.87-.56,3.79-.97,5.62-1.66,1.63-.61,3.25-1.21,4.83-1.93,1.87-.86,3.71-1.77,5.47-2.84.34-.21.7-.39,1.06-.56.5-.22,1.08.04,1.28.55.1.26.03.48-.16.65-.21.18-.43.36-.67.5-2.1,1.31-4.25,2.52-6.57,3.42-.33.13-.65.31-.97.47-.79.39-1.64.62-2.46.91-1.26.45-2.5.94-3.79,1.3-1.46.41-2.91.83-4.41,1.11-.73.14-1.41.43-2.15.52-1.19.14-2.38.25-3.55.47-.95.18-1.91.05-2.87.25Z"/>
  <path class="cls-1" d="M167.42,88.82c-.06-.77.02-1.55.02-2.32-.02-2.22-.29-4.41-.57-6.61-.23-1.86-.56-3.7-.98-5.53-.65-2.85-1.51-5.62-2.49-8.37-.45-1.26-1.03-2.46-1.51-3.71-.57-1.5-1.31-2.91-2.08-4.31-.79-1.43-1.56-2.88-2.49-4.23-.96-1.4-1.86-2.84-2.95-4.14-.7-.84-1.37-1.71-2.06-2.57-.88-1.09-1.85-2.09-2.8-3.11-.84-.9-1.76-1.73-2.66-2.58-.33-.31-.74-.56-1.05-.89-1.32-1.38-2.86-2.49-4.4-3.6-2.08-1.51-4.28-2.86-6.46-4.23-.5-.31-.74-.72-.83-1.3-.16-1.03-.04-2.07-.05-3.09-.02-2.26-.09-4.51-.04-6.77.03-1.32-.01-2.64-.02-3.96,0-.62.18-1.15.58-1.65.67-.82,1.44-1.54,2.2-2.28.4-.39.67-.84.73-1.4.08-.79.09-1.57,0-2.36-.02-.24-.06-.48-.03-.72.1-1.04-.01-2.08-.01-3.11,0-.71-.24-.93-.94-.96-.14,0-.28,0-.42,0-7.34,0-14.68,0-22.02,0-.16,0-.32,0-.48,0-.34.03-.51.18-.56.51-.03.16-.01.32-.01.48,0,1.7,0,3.4-.02,5.09-.01,1.11.38,1.97,1.14,2.72.64.63,1.3,1.24,1.88,1.94.29.35.48.72.49,1.19.02.55,0,1.11.06,1.66.14,1.43,0,2.87,0,4.31,0,.53-.04,1.07-.07,1.61-.03.56-.36.88-.92.91-.24.01-.48,0-.72,0-.84.03-1.68-.07-2.51.08-.6.1-.78.27-.8.85-.02.78-.14,1.55-.09,2.33.02.35-.06.68-.15,1-.12.48-.49.7-1,.65-.43-.04-.79-.39-.81-.82-.04-.72-.12-1.43-.09-2.15.01-.32,0-.64-.04-.96-.07-.62-.31-.84-.93-.86-1.62-.05-3.23-.08-4.85-.12-.34,0-.68-.04-1.02-.02-.44.02-.88-.01-1.31.11-.4.12-.47.2-.53.62-.12.87-.07,1.75-.08,2.63,0,.22.01.44-.01.66-.05.4-.25.74-.65.86-.4.12-.8.04-1.1-.29-.23-.25-.28-.56-.28-.89,0-.88.02-1.76-.09-2.63-.11-.82-.29-.96-1.11-1.04-.78-.07-1.56-.01-2.34-.04-.94-.03-1.35-.42-1.38-1.35-.08-2.26-.03-4.52-.04-6.78,0-.64.19-1.22.62-1.7.31-.34.61-.69.98-.96.56-.4.97-.94,1.43-1.45.24-.27.44-.58.46-.96.04-.68.18-1.34.15-2.03-.06-1.28-.07-2.56,0-3.83.01-.28,0-.56-.09-.83-.1-.32-.3-.51-.65-.51-.16,0-.32,0-.48,0-3.66,0-7.32,0-10.98,0-3.26,0-6.52,0-9.78,0-.58,0-1.16.02-1.74.04-.55.02-.8.16-.84.58-.08.81-.24,1.62-.14,2.44.08.66.14,1.31.04,1.97-.07.42-.1.84-.05,1.25.06.56-.01,1.17.37,1.66.25.32.48.65.79.9.73.6,1.33,1.32,1.95,2.03.33.37.49.8.48,1.31-.02,1.13.02,2.27-.02,3.4-.02.68.12,1.35.14,2.03.01.6-.19,1.19-.12,1.79.11.98-.03,1.95-.01,2.92.02,1.14-.02,2.28.01,3.42.02.72-.29,1.22-.86,1.59-.13.09-.27.17-.41.25-.51.31-1.02.62-1.54.93-1.15.68-2.25,1.46-3.33,2.23-1.25.89-2.52,1.76-3.7,2.75-1.41,1.17-2.77,2.4-4.1,3.66-1.68,1.6-3.27,3.28-4.74,5.07-1.46,1.77-2.81,3.63-4.07,5.55-.62.95-1.29,1.88-1.81,2.89-.34.66-.66,1.33-1.07,1.94-.83,1.22-1.28,2.62-1.97,3.89-.74,1.35-1.17,2.84-1.72,4.27-.93,2.39-1.73,4.84-2.33,7.35-.32,1.34-.57,2.69-.87,4.03-.46,2.04-.52,4.14-.86,6.2-.18,1.12-.24,2.26-.25,3.4-.02,3.09-.06,6.19.39,9.26.14.98.15,1.98.38,2.96.32,1.4.62,2.8.91,4.21.37,1.76.93,3.47,1.5,5.17.36,1.06.77,2.1,1.15,3.14.65,1.77,1.42,3.47,2.31,5.12.44.82.68.87,1.43.29,1.2-.93,2.46-1.77,3.69-2.66.81-.58,1.67-1.09,2.5-1.65.34-.23.53-.61.9-.77.86-.38,1.64-.9,2.45-1.37,2.69-1.56,5.45-2.99,8.29-4.28,1.71-.78,3.44-1.48,5.18-2.19,2.72-1.1,5.55-1.88,8.35-2.77,2.34-.75,4.76-1.2,7.16-1.68,1.66-.33,3.35-.52,5.02-.77,2.13-.32,4.28-.42,6.42-.64,1.39-.14,2.79-.02,4.19-.11.83-.06,1.67.01,2.51.05,1.63.07,3.27.08,4.9.25,1.15.12,2.31.19,3.45.33,2.19.26,4.38.54,6.56.98,2.17.44,4.31.98,6.45,1.57,2.29.63,4.54,1.39,6.77,2.21,1.7.62,3.42,1.23,5.05,2.02.67.33,1.35.61,2.04.85.19.07.39.12.55.22,1,.62,2.11,1.05,3.16,1.58,1.73.88,3.4,1.86,5.03,2.9,1.46.93,2.95,1.82,4.34,2.86,1.23.92,2.5,1.79,3.75,2.68.21.15.43.3.66.41.36.17.54.12.79-.17.09-.11.17-.22.24-.34.63-1.16,1.25-2.32,1.7-3.56.73-2.05,1.56-4.05,2.14-6.16.57-2.1,1.24-4.17,1.53-6.33.12-.89.35-1.76.46-2.65.09-.75.13-1.51.21-2.26.09-.91.25-1.82.29-2.73.06-1.31.15-2.62.05-3.94ZM134.21,60.97c.46-.02.91.05,1.27.41.51.53.47,2.1-.07,2.61-.21.2-.43.17-.67.17-2.26,0-4.52,0-6.78,0h-.96c-2.58,0-5.16-.02-7.74.01-.6,0-.95-.24-1.03-.9-.06-.47-.05-.95.06-1.43.11-.46.38-.75.82-.86.35-.08.7-.16,1.06-.16,1.8,0,3.6-.03,5.4.02.8.02,1.59-.09,2.38-.01,1.01.09,2.02,0,3.03.04,1.07.03,2.14.13,3.22.08ZM118.16,50.44c-.04-.94-.07-1.87-.07-2.81,0-1.86.05-3.72-.06-5.57-.08-1.3.09-2.59.03-3.88-.07-1.77-.14-3.54-.11-5.31.03-1.88-.08-3.75.01-5.72,0-2.46.01-5.02-.01-7.57,0-.61.03-1.23-.08-1.85-.09-.52.3-1.04.81-1.16.31-.07.62-.11.95-.11,3.52.04,7.03.15,10.55.13.53,0,1.07.09,1.6.19.54.1.77.4.84.94.1.87.11,1.74.02,2.62-.05.47-.06.95.04,1.43.05.23.03.48.02.72-.04,1.42-.06,2.84-.03,4.25.03,1.83-.01,3.67.06,5.51.06,1.65-.04,3.31.03,4.97.07,1.52.03,3.03.09,4.55.04.84-.03,1.68-.03,2.52,0,1.35.03,2.71.04,4.06,0,1.66,0,3.31,0,4.97,0,1.64-.03,3.27-.04,4.91,0,.08,0,.16,0,.24-.1.97-.46,1.29-1.43,1.31-.94.02-1.87.13-2.81.08-2.33-.14-4.67-.03-7.01-.13-.7-.03-1.39-.05-2.09-.07-.87-.02-1.21-.31-1.25-1.18-.05-1.12-.03-2.23-.04-3.35,0-1.56.04-3.12-.03-4.67ZM116.65,15.19c-.73-.67-1.48-1.34-2.06-2.15-.17-.24-.25-.48-.25-.78.01-1.58,0-3.16,0-4.74,0-.72.38-1.13,1.1-1.14.98-.02,1.96-.04,2.93.08.43.05.67.32.81.7.1.26.12.54.1.82-.02.36-.03.72,0,1.08.04.52.25.78.76.84.51.07,1.03.11,1.55.03.59-.09.79-.31.83-.91.03-.56-.01-1.11.09-1.67.1-.58.43-.94,1.03-.98.58-.03,1.15-.07,1.74-.04.6.04,1.2.05,1.79.02.62-.03,1.15.37,1.21,1.12.05.6-.03,1.2.11,1.79.12.53.27.69.8.69.5,0,1,0,1.5-.04.5-.03.63-.19.75-.69.12-.53.06-1.07.08-1.61.02-.78.35-1.11,1.13-1.18.68-.06,1.35-.08,2.03-.07.14,0,.28-.01.42.01.84.13,1.11.21,1.23,1.3.07.7.02,1.4.04,2,0,.68-.01,1.26,0,1.84.03.91-.26,1.68-.89,2.33-.5.52-1.07.96-1.6,1.45-.22.2-.51.32-.82.31-1.18-.05-2.35.11-3.53.08-1.09-.03-2.18-.08-3.27-.09-1.12-.02-2.24.01-3.35-.04-1.82-.09-3.63-.01-5.45-.1-.29-.01-.57-.07-.78-.26ZM116.54,39.56c-.1,1.52.09,3.03.08,4.55,0,.54-.05,1.09.01,1.62.12.98.03,1.95.04,2.92,0,.84.09,1.67.06,2.51-.04,1.43,0,2.87.03,4.3.01.94-.07,1.87-.11,2.81-.07,1.48-.03,2.96-.04,4.43,0,.1,0,.2,0,.3-.03.92-.37,1.27-1.34,1.28-.48,0-.95-.04-1.43-.08-.44-.04-.72-.28-.83-.73-.14-.61-.07-1.23-.11-1.85-.04-.68,0-1.36,0-2.04,0-1.02,0-2.04,0-3.06,0-.48-.16-.95-.08-1.43.12-.72.06-1.43.07-2.15.01-1.12-.06-2.23-.32-3.32-.38-1.61-1.23-2.93-2.47-4.01-.78-.67-1.69-1.14-2.64-1.51-.56-.22-1.15-.32-1.76-.32-1.29,0-2.54.19-3.72.76-.58.28-1.14.58-1.53,1.11-.17.23-.44.33-.63.55-1.11,1.28-1.62,2.8-1.81,4.45-.13,1.1-.11,2.2-.06,3.29.07,1.39.09,2.78.05,4.17-.05,1.61,0,3.22-.11,4.83-.06,1-.44,1.35-1.43,1.35-.46,0-.92.01-1.38,0-.81-.03-1.22-.42-1.22-1.24,0-1.08-.09-2.16.07-3.23.06-.38-.07-.75-.08-1.13-.08-2.4,0-4.8-.04-7.2-.01-.82-.18-1.64-.05-2.45.1-.64,0-1.27.01-1.89,0-.81-.08-1.63-.07-2.44,0-.42-.09-.83-.08-1.25.04-1.5.1-2.99.09-4.49,0-.59.42-1,1-1.06.18-.02.36-.01.54-.01,1.74,0,3.48,0,5.22,0,.42,0,.83.01,1.25-.07.5-.1.99.07,1.49.07,2.32,0,4.64,0,6.96,0,.82,0,1.63.04,2.45.08.61.03,1.23-.05,1.85-.08.3-.01.59.02.89.1.71.19,1.06.56,1.15,1.27.01.1.03.2.02.3ZM94.18,36.06c.02-.21.16-.31.33-.38.04-.02.08-.03.12-.02.91.09,1.82-.28,2.74-.06.09.02.2.01.3.01,1.12.01,2.24,0,3.35.05,1.77.07,3.54-.05,5.31-.01.78.02,1.55.03,2.32.19.18.04.35.01.53-.02,1-.19,2.01-.21,3.03-.1.83.08,1.68.02,2.51.02.22,0,.44.01.66.05.21.04.38.18.38.4,0,.22-.18.36-.38.4-.15.03-.32.03-.48.03-.82,0-1.64,0-2.61,0-.98-.03-2.12-.04-3.25-.09-1.09-.04-2.19.02-3.29.06-1.08.04-2.16,0-3.23.01-.93,0-1.88-.06-2.81.08-.39.06-.75-.06-1.13-.08-.68-.03-1.35.12-2.03.09-.58-.03-1.15-.06-1.73-.09-.12,0-.24-.03-.35-.07-.2-.08-.32-.23-.3-.47ZM93.71,28.22c-.02-.86.34-1.2,1.19-1.21.5,0,1-.02,1.49.1.44.11.66.32.71.77.07.63.09,1.26.12,1.89,0,.46-.01.92,0,1.38.01.42.13.53.54.67.33.1.68.13,1.01.09.79-.09,1.59-.07,2.39-.13.79-.06.99-.25.97-1.05-.01-.88.07-1.75.09-2.63.02-.68.3-1.01.97-1.15.1-.02.2-.06.29-.05,1.22.12,2.46-.05,3.68.21.52.11.77.41.82.95.06.74.03,1.48.04,2.22,0,.24.02.47.07.71.14.67.36.89,1.04.9.96.03,1.92.04,2.88.04.64,0,.81-.16.93-.77.15-.75.08-1.51.07-2.27,0-.42.08-.83.15-1.24.05-.3.28-.47.57-.54.63-.15,1.27-.16,1.89.02.47.14.84.7.89,1.24.04.46-.1.91-.09,1.37.05,1.06.12,2.11.08,3.17,0,.12,0,.24,0,.36-.03.96-.43,1.34-1.38,1.3-.62-.03-1.23-.02-1.85-.1-.61-.08-1.23.08-1.85.08-.74,0-1.47-.15-2.21-.09-1.59.13-3.19.04-4.79.1-.59.02-1.19,0-1.79-.08-.33-.04-.68-.05-1.02-.02-1.02.11-2.03.11-3.04,0-.35-.04-.72-.05-1.08.02-.34.07-.67.05-1.01,0-.29-.04-.6-.03-.9-.04-.26,0-.52,0-.78-.03-.83-.09-1.08-.35-1.11-1.18-.01-.56.04-1.12-.01-1.68-.11-1.12.05-2.23.02-3.34ZM75.34,14.45c-.17-.19-.32-.42-.53-.57-.88-.65-.94-1.57-.84-2.53.04-.42.08-.83-.01-1.24-.08-.34.07-.67.07-1.01,0-.54.02-1.08,0-1.62-.03-.55.42-.99.85-1.1.25-.07.5-.13.76-.12.7.01,1.4,0,2.1,0,.71,0,1.1.3,1.19,1,.07.57.18,1.14.16,1.72-.02.56.16.77.7.84.58.08,1.16.03,1.73-.04.42-.05.56-.25.59-.7.04-.52.07-1.03.12-1.55.09-.96.66-1.26,1.37-1.27,1.04-.01,2.08-.08,3.11.07.87.12,1.13.39,1.16,1.28.02.5-.04,1,.08,1.49.12.49.21.64.69.68.53.05,1.08.11,1.61.04.53-.07.69-.24.73-.77.04-.52.07-1.03.09-1.55.03-.72.34-1.09,1.06-1.24.95-.19,1.9-.17,2.86-.02.59.09.8.33.93.93.08.37.12.75.11,1.13-.01.54.05,1.08.07,1.61.02.76-.05,1.51-.08,2.27-.01.41-.21.74-.47,1.01-.56.57-1.14,1.12-1.73,1.66-.29.27-.68.34-1.06.35-.84.03-1.68.07-2.51.04-1.84-.06-3.68-.02-4.98,0-3.07,0-5.61-.02-8.15.01-.76.01-1.3-.29-1.77-.82ZM92.54,58.7c0,.49-.27.82-.75.94-.19.05-.39.09-.59.09-1.13,0-2.26.13-3.4.07-1.61-.1-3.24-.1-4.86,0-1.16.08-2.31-.11-3.46-.03-.24.02-.48-.02-.71-.09-.34-.11-.55-.33-.64-.66-.08-.29-.11-.58-.12-.89-.06-2.59-.16-5.19-.17-7.78,0-1.93-.07-3.86-.12-5.79-.07-2.55-.04-5.1-.08-7.65,0-.7,0-1.39-.1-2.09-.06-.4.09-.79.08-1.19-.05-2.08-.09-4.15-.12-6.23,0-.56.04-1.12.03-1.68,0-2.28-.03-4.55-.04-6.83,0-.46.01-.92.04-1.38.05-.81.44-1.16,1.25-1.22,1.63-.11,3.27-.09,4.9-.12.44,0,.88,0,1.32,0,1.64-.06,3.27.06,4.91.05.48,0,.95.08,1.43.08.38,0,.69.3.8.69.13.49.17.99.13,1.48-.08,1.18.03,2.36-.03,3.53-.04.7.04,1.4-.08,2.09-.08.48.1.95.07,1.43-.06,1.06-.08,2.11-.08,3.17,0,.48-.03.96.07,1.43.07.32-.06.63-.08.95-.05.7.16,1.39.12,2.09-.05.9-.01,1.8,0,2.69.03,1.26.04,2.51.06,3.77.03,2.05.05,4.11.06,6.16,0,1.03-.05,2.07.02,3.1.09,1.33.08,2.67.16,4,.09,1.53.14,3.07-.04,4.6-.05.39,0,.8-.01,1.2ZM78.31,61.05c1.9-.09,3.79-.09,5.69-.09,2.42,0,4.84,0,7.26,0,.81,0,1.21.36,1.28,1.17.02.32-.02.64.01.96.08.67-.57,1.26-1.23,1.24-1.48-.04-2.96-.01-4.44-.01h-3.18c-2.54,0-5.08-.02-7.62.01-.64,0-1.05-.28-1.14-.95-.06-.44-.06-.88-.02-1.31.05-.58.56-.97,1.23-.99.72-.02,1.44,0,2.16-.04ZM165.52,91.84c0,.06-.01.12-.01.18-.03,3-.55,5.95-1.12,8.88-.38,2-.95,3.95-1.49,5.91-.56,2.03-1.36,3.96-2.19,5.88-.1.22-.18.44-.28.66-.08.16-.15.33-.26.47-.3.42-.6.55-.95.44-.48-.15-.83-.59-.82-1.06,0-.45.15-.86.33-1.27.7-1.61,1.28-3.26,1.88-4.91.82-2.28,1.31-4.64,1.77-7.01.32-1.66.66-3.32.8-5.01.13-1.49.31-2.97.32-4.47,0-.81-.02-1.62.03-2.43.07-1.01-.02-2.03-.12-3.04-.13-1.23-.22-2.46-.33-3.69-.12-1.31-.28-2.61-.64-3.88-.05-.16-.03-.4-.27-.41-.21-.01-.29.2-.38.35-.24.44-.45.89-.68,1.33-.39.74-.77,1.49-1.17,2.22-.44.83-.82,1.69-1.18,2.56-.3.73-.34,1.51-.33,2.29.03,1.84.18,3.67.13,5.51-.05,1.82-.05,3.63-.18,5.44-.08,1.15-.24,2.3-.37,3.44-.32,2.86-1.02,5.64-1.64,8.44-.13.6-.34,1.19-.55,1.77-.2.55-.5.73-.99.64-.45-.08-.84-.54-.86-1-.03-.51.11-.99.25-1.47.5-1.81.93-3.63,1.22-5.48.21-1.38.44-2.76.54-4.14.07-.89.17-1.78.21-2.68.06-1.45.25-2.9.18-4.36-.08-1.5-.05-2.99-.12-4.49-.04-.79-.14-1.59-.23-2.38-.06-.51-.28-.95-.59-1.36-1.45-1.93-3.02-3.77-4.71-5.49-1.55-1.58-3.14-3.13-4.88-4.5-.41-.32-.75-.71-1.19-1.01-.72-.49-.98-.49-1.66.03-.63.47-1.15,1.05-1.69,1.61-.62.64-1.23,1.29-1.93,1.86-.58.47-1.12,1.02-1.66,1.55-1.76,1.75-3.71,3.28-5.59,4.88-.41.35-.79.73-1.2,1.08-.43.36-.57.91-.65,1.45-.29,2.13-.67,4.25-1.03,6.37-.36,2.14-.79,4.27-1.29,6.39-.04.19-.1.39-.19.56-.16.29-.39.49-.76.48-.66-.02-1.31-.07-1.95-.25-1.25-.35-2.53-.56-3.8-.78-1.08-.19-2.16-.35-3.24-.54-.92-.17-1.87-.16-2.79-.32-1.65-.29-3.33-.29-5-.46-2.27-.23-4.55-.19-6.82-.11-1.75.06-3.51.12-5.26.23-1.07.07-2.15.13-3.2.34-.58.12-1.22.04-1.77.36-.15.09-.39-.08-.62-.05-1.7.21-3.38.56-5.06.91-1.07.23-2.14.49-3.22.65-1.04.15-1.45.17-1.79-1.09-.43-1.62-.63-3.29-.95-4.93-.11-.57-.24-1.13-.34-1.7-.34-1.94-.68-3.89-1-5.83-.12-.72-.38-1.3-.97-1.78-1.47-1.19-2.92-2.42-4.35-3.66-.71-.61-1.34-1.32-2.05-1.93-1.52-1.3-2.92-2.73-4.4-4.06-.37-.33-.73-.69-1.12-1-.64-.51-.95-.52-1.6-.01-1.09.84-2.14,1.73-3.16,2.65-.71.64-1.42,1.28-2.1,1.95-.9.87-1.76,1.79-2.6,2.73-.77.86-1.57,1.7-2.28,2.62-.01.02-.03.03-.04.04-1.05,1.01-1.3,2.32-1.39,3.7-.15,2.21-.21,4.42-.26,6.64-.03,1.44.16,2.85.24,4.28.04.7.08,1.39.13,2.09.05.56.11,1.11.32,1.63.13.32.13.64.12.99,0,.59.1,1.19.23,1.77.33,1.39.58,2.81,1,4.18.19.61.31,1.24.44,1.86.12.57-.15.98-.74,1.18-.59.2-.94.05-1.19-.55-.34-.79-.55-1.63-.74-2.46-.38-1.65-.85-3.28-1.14-4.95-.2-1.14-.4-2.28-.52-3.42-.15-1.37-.21-2.74-.32-4.11-.19-2.4-.05-4.79-.03-7.19,0-.93.01-1.88.07-2.81.06-1.1-.25-2.08-.74-3.04-.83-1.62-1.65-3.24-2.57-4.8-.13-.22-.2-.57-.5-.52-.29.05-.23.41-.3.65-.55,2.01-.56,4.1-.9,6.14-.06.35-.06.72-.04,1.08.03.96-.12,1.91-.08,2.87.07,1.73.08,3.47.2,5.2.21,3.01.71,5.97,1.37,8.91.15.66.32,1.32.66,1.92.07.12.11.26.13.39.3,1.95,1.07,3.75,1.76,5.58.32.84.63,1.68,1,2.5.29.66.14,1.16-.37,1.62-.4.36-.82.34-1.2-.05-.3-.31-.46-.71-.61-1.09-.73-1.92-1.61-3.79-2.21-5.75-.45-1.47-.82-2.96-1.23-4.44-.63-2.29-.92-4.65-1.29-6.99-.1-.65-.14-1.31-.16-1.97-.06-1.91-.29-3.82-.21-5.74.06-1.57.06-3.15.21-4.72.24-2.66.55-5.31,1.1-7.92.41-1.93.95-3.83,1.52-5.72.74-2.43,1.64-4.79,2.63-7.12.49-1.13,1.07-2.23,1.62-3.33,1.05-2.07,2.2-4.07,3.54-5.97.95-1.34,1.85-2.71,2.9-3.96.96-1.14,1.93-2.28,2.97-3.37.73-.76,1.44-1.55,2.21-2.28.13-.12.24-.27.33-.43.16-.27.37-.45.65-.59.49-.24.86-.65,1.25-1.02,1.56-1.46,3.22-2.81,4.97-4.03,1.37-.96,2.68-2.02,4.24-2.7.16-.07.33-.15.5-.21.55-.17.94.09,1.02.67.11.74-.14,1.27-.83,1.63-1.54.79-2.91,1.83-4.28,2.85-1.26.94-2.48,1.94-3.68,2.97-.35.3-.64.66-.95.99-.1.1-.18.23-.09.38.08.14.23.15.37.12.49-.12.99-.04,1.49-.09.83-.09,1.6-.29,2.26-.83,1.25-1.02,2.52-2.02,3.78-3.03.33-.27.66-.52,1.09-.6.44-.08.74.13.82.56.15.78-.16,1.35-.76,1.82-.97.76-1.91,1.57-2.91,2.31-.86.64-1.31,1.49-1.49,2.5-.2,1.1-.66,2.13-.88,3.23-.29,1.46-.6,2.92-.89,4.39-.15.76-.31,1.53-.41,2.3-.19,1.48-.46,2.95-.67,4.43-.15,1.04-.18,2.1-.27,3.15-.11,1.23-.19,2.46-.3,3.69-.1,1.03.21,1.96,1.04,2.67.39.34.75.72,1.08,1.12.47.57,1.04,1.05,1.57,1.56,1.29,1.24,2.58,2.5,3.9,3.72.81.74,1.66,1.44,2.51,2.13.85.69,1.71,1.37,2.61,2.01.56.4,1.03.44,1.63.1,1.88-1.06,3.75-2.13,5.6-3.23,1.27-.76,2.52-1.54,3.83-2.23.55-.29,1.05-.66,1.57-.99,2.58-1.6,5.07-3.33,7.55-5.09,1.17-.83,2.31-1.71,3.47-2.56.21-.15.43-.3.64-.45.47-.33.97-.32,1.48-.09.74.33,1.36.85,1.97,1.35.76.62,1.61,1.1,2.4,1.69.78.59,1.58,1.15,2.38,1.71,1.02.71,2.04,1.4,3.07,2.08.42.27.82.57,1.24.84.75.49,1.54.91,2.31,1.38,1.23.75,2.44,1.52,3.68,2.25,1.22.72,2.42,1.46,3.66,2.15.66.37,1.3.77,1.96,1.15.59.34,1.12.29,1.65-.15,1.25-1.02,2.53-2.01,3.72-3.1.53-.49,1.15-.86,1.67-1.37.47-.46.97-.89,1.45-1.34.99-.96,1.96-1.94,2.96-2.89.76-.71,1.43-1.5,2.12-2.28.53-.59.69-1.28.63-2.05-.09-1.17-.15-2.35-.26-3.52-.1-1.17-.26-2.33-.43-3.5-.12-.81-.15-1.62-.28-2.43-.54-3.37-1.15-6.72-2.06-10.01-.24-.85-.5-1.68-.72-2.53-.17-.64-.67-1.07-.99-1.62-.61-.15-1.01-.63-1.48-.98-.64-.47-1.23-1.01-1.83-1.54-.45-.4-.54-.91-.39-1.47.15-.54.47-.71.99-.48.67.29,1.19.79,1.75,1.24,1.02.83,2.07,1.63,3.12,2.43.35.27.77.38,1.23.4.82.03,1.63.01,2.53.02-.17-.51-.52-.72-.82-.97-.87-.74-1.77-1.42-2.64-2.16-.73-.62-1.52-1.17-2.3-1.72-1.06-.75-2.13-1.48-3.21-2.2-.53-.35-.81-.81-.72-1.46.08-.56.46-.84,1.02-.71.29.07.58.16.83.34.76.55,1.64.91,2.39,1.49,1.34,1.04,2.77,1.95,4.06,3.06,1.31,1.13,2.6,2.3,3.9,3.44.47.41.94.83,1.38,1.27,1.11,1.08,2.18,2.22,3.16,3.43.53.65,1.06,1.3,1.61,1.93.56.64,1.03,1.37,1.54,2.06,1.1,1.5,2.11,3.06,3.03,4.67.9,1.57,1.79,3.16,2.53,4.82.73,1.64,1.48,3.27,2.09,4.96.71,1.97,1.28,3.98,1.85,5.99.57,2.02.85,4.1,1.25,6.15.26,1.36.33,2.77.45,4.16.19,2.13.17,4.26.25,6.4.03.84-.06,1.66-.13,2.49Z"/>
  <path class="cls-1" d="M63.91,152.58c-.61-1.37-1.58-2.39-2.96-2.99-1.91-.83-3.83-.82-5.75-.04-1.58.64-2.93,1.62-4.03,2.92-.59.7-1.04,1.5-1.45,2.33-.86,1.74-1.28,3.55-1.26,5.48,0,.88.2,1.73.36,2.59.15.79.55,1.37,1.05,1.89.89.92,1.98,1.56,3.21,1.87.82.21,1.67.36,2.54.17,1.97-.42,3.64-1.37,5.05-2.79,2.05-2.06,3.32-4.52,3.72-7.4.19-1.37.11-2.74-.48-4.03ZM58.56,156.43c-.55,1.73-1.32,3.37-2.13,5-.21.43-.48.83-.83,1.16-.33.32-.72.48-1.19.46-.47-.03-.74-.2-.89-.65-.13-.41-.12-.82-.06-1.24.22-1.45.79-2.79,1.33-4.14.32-.8.7-1.56,1.14-2.3.31-.52.7-.97,1.12-1.39.37-.37.82-.36,1.23-.23.39.13.61.49.63.94,0,.22,0,.44,0,.68.13.61-.19,1.14-.37,1.71Z"/>
  <path class="cls-1" d="M134.87,171.52c-.6-.77-.96-.74-1.5-.04-.26.33-.48.69-.8.96-.79.68-1.66,1.1-2.74.71-.86-.32-1.5-.91-1.99-1.66-.52-.8-.29-1.55.62-1.86.81-.27,1.63-.52,2.43-.83.69-.26,1.4-.46,2.1-.71.71-.25.85-.49.83-1.26-.02-.89-.28-1.71-.62-2.53-.75-1.81-2.01-3.14-3.69-4.1-.79-.46-1.66-.73-2.56-.73-1.36,0-2.5.63-3.41,1.62-.78.85-1.29,1.88-1.59,2.98-.25.93-.49,1.9-.39,2.91-.06.34-.02.7.02,1.06.19,1.46.5,2.88,1.12,4.25.76,1.66,1.7,3.16,3.02,4.4.95.9,2.01,1.61,3.37,1.79,1.5.19,2.85-.08,4.01-1.08,1.07-.92,1.66-2.14,2.09-3.43.28-.84.23-1.7-.35-2.44ZM125.66,165.3c-.02-.16-.03-.32-.05-.47.02-.53.15-1.02.55-1.4.53-.51,1.15-.54,1.7-.05.36.32.66.69.82,1.15.31.87.13,1.39-.66,1.86-.03.02-.07.04-.11.05-1.25.64-2.04.24-2.25-1.14Z"/>
  <path class="cls-1" d="M175.46,143.21c-1.16.19-2.18.76-3.25,1.16-1.85.69-3.67,1.46-5.5,2.18-.18.07-.39.11-.58.13-.64.08-.93-.33-.68-.93.05-.11.12-.21.18-.31.32-.58.77-1.06,1.18-1.58,1.12-1.45,2.27-2.89,3.38-4.34.5-.65,1.02-1.28,1.31-2.07.47-1.29-.42-2.43-1.77-2.27-.4.05-.79.13-1.17.26-.87.3-1.71.66-2.58.96-1.92.67-3.8,1.45-5.7,2.18-3.06,1.16-6.08,2.41-9.18,3.45-1.03.35-2,.49-3.01,0-.25-.12-.54-.24-.8-.19-1.64.32-2.89,1.48-1.99,3.42.46,1.01,1.12,1.95,1.89,2.76.59.62,1.37.95,2.28.77,1.07-.21,1.66-.9,1.86-1.93.13-.67.52-1.1,1.12-1.37,1.28-.57,2.58-1.07,3.9-1.53.17-.06.35-.1.52-.13.59-.08.83.19.68.77-.11.41-.32.77-.58,1.11-.57.74-1.12,1.51-1.72,2.22-.65.77-1.34,1.51-2.48,1.46-.12,0-.23.04-.35.06-1.54.3-2.29,1.75-1.69,3.19.47,1.14,1.16,2.13,1.96,3.06.52.61,1.02,1.23,1.69,1.69.71.49,1.44.63,2.26.27.6-.26.93-.74,1.2-1.28.26-.54.5-1.09.72-1.64.27-.67.69-1.2,1.21-1.68.76-.71,1.7-1.03,2.65-1.33.37-.11.77-.24,1.05.13.27.36.07.72-.15,1.04-.88,1.28-1.87,2.49-2.82,3.72-.42.53-.98.88-1.64,1.06-.29.08-.56.21-.85.3-1.12.35-1.55,2.11-1.19,2.88.34.72.69,1.43,1.15,2.1.83,1.19,1.92,2.07,3.11,2.86.42.28.9.43,1.41.43.6,0,1.13-.2,1.63-.51.76-.48,1.06-1.16.93-2.03-.02-.16-.01-.31.01-.47.1-.56.34-1.06.66-1.53.77-1.14,1.51-2.3,2.33-3.41.65-.89,1.2-1.84,1.87-2.71.94-1.22,1.84-2.46,2.84-3.63.81-.94,1.35-2.08,2.18-3.01.59-.66.99-1.44,1.55-2.11.4-.47.66-1.04.81-1.65.28-1.17-.65-2.17-1.82-1.98ZM176.5,145.24c-.02.12-.06.24-.11.34-.16.3-.33.59-.5.89-.51.89-1.18,1.66-1.8,2.47-1.12,1.46-2.28,2.88-3.31,4.4-1.08,1.58-2.25,3.1-3.37,4.65-.94,1.31-1.82,2.67-2.59,4.09-.27.51-.38,1.04-.44,1.6-.07.75-.33,1.39-1,1.82-.36.23-.71.29-1.13.19-.93-.23-1.65-.77-2.27-1.48-.52-.6-1.03-1.22-1.49-1.87-.29-.41-.53-.84-.72-1.31-.45-1.11-.06-1.78.79-2.36.24-.17.53-.28.81-.38.87-.32,1.57-.83,2.11-1.6.92-1.28,1.8-2.59,2.78-3.83.22-.28.37-.61.39-.99.03-.49-.18-.8-.64-.96-.38-.13-.78-.17-1.18-.07-1.34.36-2.6.92-3.68,1.81-.65.53-1.02,1.27-1.38,2.01-.16.32-.29.66-.45.98-.17.35-.4.64-.69.9-.55.48-1.2.51-1.81.12-.72-.46-1.21-1.15-1.81-1.74-.51-.49-.85-1.11-1.19-1.71-.36-.62-.52-1.28-.31-2.01.15-.49.47-.79.92-.94.36-.12.73-.23,1.1-.25.77-.04,1.34-.43,1.78-.98.83-1.05,1.71-2.06,2.49-3.15.29-.41.52-.85.78-1.27.43-.71.15-1.67-1.03-1.75-.06,0-.12,0-.15,0-.51.05-.98.12-1.42.33-.84.38-1.73.6-2.56,1.02-.66.34-1.31.67-1.95,1.06-.49.3-.8.71-.95,1.26-.04.14-.07.27-.11.4-.38,1.19-1.63,1.36-2.36.74-1.05-.88-1.89-1.95-2.11-3.38-.1-.63.3-1.25.91-1.44.37-.12.75-.11,1.12,0,.21.07.42.14.63.19.8.19,1.59.04,2.35-.19,1.95-.58,3.82-1.4,5.74-2.06,2.14-.74,4.16-1.74,6.25-2.57,1.78-.71,3.57-1.39,5.38-2.01.49-.17.99-.31,1.52-.27.54.05.78.3.79.85,0,.23-.04.44-.13.64-.29.71-.66,1.38-1.16,1.95-.74.86-1.4,1.79-2.13,2.66-.82.98-1.52,2.05-2.31,3.06-.27.35-.48.74-.64,1.15-.21.55.02,1.03.58,1.24.33.12.66.1,1,.02.82-.19,1.59-.52,2.36-.85.9-.38,1.81-.73,2.72-1.1.61-.24,1.24-.47,1.81-.78.79-.42,1.65-.6,2.51-.78.86-.18,1.39.4,1.22,1.26Z"/>
  <path class="cls-1" d="M136.47,110.33c-.32-.47-.73-.84-1.21-1.15-.99-.64-2.1-.96-3.24-1.19-.41-.08-.84-.07-1.24.07-.67.23-1.23.53-1.31,1.36-.02.27-.06.55-.1.82-.09.75-.05,1.51-.22,2.25-.46,2.04-1.08,4.04-1.77,6.02-.17.49-.49.87-.89,1.18-.57.44-1.23.27-1.54-.38-.19-.4-.17-.83-.1-1.24.2-1.3.49-2.59.95-3.83.53-1.43.88-2.96,1.99-4.11.21-.22.38-.46.57-.69.23-.29.39-.64.36-.99-.05-.82-.4-1.51-1.17-1.9-1.09-.55-2.21-.98-3.44-1.18-1.52-.24-2.55.98-2.55,2.16,0,.36.07.71.09,1.07.06,1.04-.22,2.02-.52,2.99-.63,2.08-1.41,4.12-1.98,6.21-.31,1.13-.62,2.25-.49,3.46.16,1.39.8,2.44,1.95,3.2.2.13.43.21.66.26.81.18,1.58.06,2.32-.32.23-.12.45-.26.69-.36.6-.24.99.08.91.72-.03.24-.06.47-.14.7-.33.94-.62,1.89-.96,2.83-.36.99-.76,1.97-1.03,3-.23.88.01,1.33.9,1.56.54.14,1.1.21,1.66.17,1.03-.11,2.07-.1,3.08-.39,1.43-.41,2.1-1.54,1.74-2.99-.06-.25-.17-.49-.25-.73-.26-.79.02-1.55.21-2.29.5-1.93,1.14-3.82,1.77-5.71.55-1.65,1.1-3.29,1.72-4.91.4-1.06.94-2.03,1.88-2.72.27-.2.49-.47.68-.75.5-.74.51-1.5.01-2.24ZM135.55,112.29c-.23.25-.46.5-.72.72-.81.67-1.29,1.56-1.63,2.53-.79,2.28-1.62,4.54-2.37,6.83-.59,1.82-1.21,3.63-1.53,5.53-.07.4.04.75.11,1.12.09.45.22.89.21,1.36-.02.67-.33,1.14-.94,1.39-.67.27-1.36.44-2.09.46-.5.02-.99.06-1.48-.02-.76-.11-1.1-.52-.99-1.28.05-.33.14-.66.25-.98.64-1.78,1.28-3.57,1.81-5.39.04-.15.08-.31.11-.46.11-.44.09-.85-.3-1.14-.41-.3-.88-.37-1.36-.17-.3.12-.54.34-.78.55-.46.4-.97.69-1.6.73-.41.03-.79-.01-1.13-.25-1.04-.74-1.68-1.69-1.59-2.77.05-1.32.21-2.35.52-3.37.66-2.19,1.47-4.34,2.06-6.56.25-.95.44-1.9.4-2.89,0-.08,0-.16,0-.24-.1-1.15.51-2.13,2.19-1.76.79.17,1.51.53,2.2.93.93.54.99,1.41.43,2.18-.46.63-1,1.2-1.29,1.94-.33.84-.7,1.66-.97,2.51-.36,1.16-.74,2.32-1.02,3.5-.13.58-.14,1.15-.08,1.73.09.84.76,1.64,1.51,1.72.77.08,1.45-.19,1.96-.79.33-.39.51-.86.69-1.32.73-1.86,1.4-3.73,1.86-5.68.2-.84.37-1.68.3-2.54-.08-.95.66-1.66,1.65-1.59,1.44.1,2.65.7,3.63,1.74.48.5.45,1.19-.02,1.73Z"/>
  <path class="cls-1" d="M73.51,125.57c-.25-.16-.51-.31-.79-.43-.73-.32-1.24-.85-1.64-1.52-.84-1.43-1.72-2.83-2.53-4.28-.48-.85-.93-1.71-.86-2.76.03-.47-.1-.94-.38-1.36-.46-.7-1.8-1.17-2.81-.83-1.12.38-2.07,1.04-2.92,1.82-.41.38-.72.87-.79,1.45-.06.51-.2,1.05.2,1.49.3.33.58.7,1.01.91.33.16.56.44.8.72,1.35,1.61,2.46,3.39,3.5,5.21.26.45.47.93.52,1.45.05.44-.06.85-.45,1.11-.37.25-.78.21-1.14,0-.52-.31-1-.68-1.32-1.2-.79-1.27-1.64-2.5-2.34-3.83-.44-.83-.86-1.67-.93-2.63-.02-.32-.09-.62-.21-.93-.43-1.13-1.31-1.63-2.5-1.35-1.07.26-1.96.88-2.82,1.53-.52.39-.94.85-1.22,1.45-.43.93-.19,2.02.7,2.52,1.08.62,1.84,1.53,2.49,2.54.92,1.45,1.77,2.94,2.72,4.37.64.96,1.14,2.02,1.96,2.86.95.97,2.03,1.75,3.41,1.98,1.07.18,2.88-.31,3.43-1.83.13-.36.24-.72.32-1.09.17-.76.63-.93,1.26-.5.21.15.43.29.65.43.39.24.76.19,1.11-.08.09-.07.19-.15.28-.23,1.24-1.15,1.93-2.63,2.49-4.18.07-.18.07-.39.09-.49-.02-1.08-.45-1.82-1.27-2.34ZM73.5,129.4c-.4.71-.79,1.44-1.39,2.01-.2.19-.4.33-.68.33-.29,0-.54-.05-.72-.33-.26-.4-.64-.65-1.09-.78-.71-.2-1.29.12-1.45.84-.11.52-.17,1.06-.26,1.59-.08.45-.18.89-.51,1.26-.81.91-2.2,1.08-3.31.38-1.13-.72-2.05-1.66-2.76-2.79-.83-1.31-1.7-2.6-2.48-3.95-.51-.88-1.1-1.71-1.66-2.55-.36-.54-.84-.95-1.39-1.29-.27-.17-.5-.4-.75-.6-.63-.51-.6-1.65-.1-2.16.83-.83,1.77-1.5,2.88-1.88.9-.3,1.54.08,1.72,1.01.33,1.74,1.17,3.25,2.05,4.75.67,1.14,1.46,2.19,2.27,3.23.38.49.87.81,1.45,1.01,1.25.42,2.44-.48,2.37-1.8-.05-.9-.42-1.7-.87-2.46-1.04-1.77-2.18-3.49-3.43-5.12-.34-.45-.81-.77-1.2-1.16-.6-.62-.48-1.6.05-2.15.72-.74,1.5-1.38,2.52-1.66.75-.21,1.29-.04,1.75.55.18.23.29.49.3.77.06,1.6.82,2.93,1.61,4.26.77,1.29,1.55,2.56,2.41,3.79.48.69,1.07,1.17,1.83,1.47.74.29,1.35,1.04,1.27,1.84,0,.57-.15,1.1-.43,1.6Z"/>
  <path class="cls-1" d="M115.78,119.82c-.5-.57-.71-1.24-.72-1.98-.01-1.66.2-3.3.32-4.95.08-1.03.2-2.06.19-3.12-.06-.4-.02-.82-.04-1.24-.05-.88-.14-1.75-.5-2.57-.77-1.74-2.56-2.94-4.78-2-.45.19-.82.48-1.24.72-.52.3-.94.13-1.14-.43-.05-.15-.09-.31-.13-.46-.09-.34-.32-.54-.67-.61-1.74-.36-3.37-.09-4.88.85-.96.59-1.69,2.3-.81,3.6.56.83.68,1.76.54,2.7-.28,1.83-.38,3.68-.54,5.53-.08,1.01-.24,2.02-.3,3.03-.05.69-.05,1.39-.17,2.08-.18,1.07.4,1.78,1.49,1.86.44.03.88.05,1.32.04.94-.03,1.87-.1,2.77-.39,1.07-.34,1.88-1.75,1.29-2.86-.16-.3-.27-.63-.45-.91-.21-.33-.29-.68-.36-1.06-.09-.47.02-.91.02-1.37,0-1.58.1-3.15.28-4.71.06-.55.14-1.11.37-1.63.18-.41.44-.78.91-.89.72-.17,1.32.34,1.34,1.15.03.8.02,1.6-.05,2.4-.13,1.51-.26,3.01-.4,4.52-.16,1.58-.42,3.16-.49,4.75-.05,1.03.39,1.49,1.29,1.59.06,0,.12,0,.18,0,1.34.09,2.67-.09,3.99-.31.89-.14,1.59-.63,1.79-1.62.13-.66-.01-1.23-.45-1.72ZM114.41,122.33c-.63.28-1.32.31-1.99.36-.44.03-.88.02-1.32,0-.77-.03-1.17-.44-1.16-1.22.02-1.2.17-2.38.27-3.57.11-1.19.21-2.38.32-3.57.03-.36.05-.72.11-1.07.18-.99.13-1.99.18-2.98.04-.82-.29-1.59-1.07-2.01-.71-.38-1.43-.27-2.09.19-.22.15-.36.37-.49.6-.39.73-.62,1.51-.73,2.33-.17,1.27-.26,2.54-.28,3.81-.01.48-.03.96-.09,1.43-.1.8.08,1.54.44,2.26.2.41.39.82.43,1.3.06.83-.23,1.37-1.25,1.71-.6.19-1.22.2-1.94.25-.21-.01-.53-.01-.85-.05-.71-.08-1.14-.52-1.11-1.23.03-.91.08-1.83.22-2.74.14-.87.15-1.75.25-2.62.16-1.38.3-2.77.42-4.16.07-.86.1-1.72.05-2.57-.02-.36-.17-.69-.34-1.02-.19-.37-.36-.75-.44-1.17-.12-.59.01-1.13.41-1.56.39-.43.85-.79,1.43-.94.58-.16,1.14-.35,1.76-.34.7.02,1.21.4,1.37,1.04.15.63.5,1.06,1.18,1.2.44.09.79-.05,1.12-.28.31-.21.59-.47.89-.71.92-.72,2.43-.73,3.27.06.52.49.96,1.09,1.13,1.81.27,1.17.35,2.35.27,3.56-.09,1.31-.24,2.62-.32,3.93-.07,1.15-.2,2.3-.19,3.46,0,.78.17,1.5.65,2.13.21.28.41.57.44.96.07.77-.33,1.16-.94,1.43Z"/>
  <path class="cls-1" d="M98.6,117.56c-.09-.71-.26-1.41-.42-2.11-.21-.91-.67-1.71-1.24-2.43-.73-.95-1.65-1.66-2.73-2.2-.56-.28-1.07-.64-1.39-1.19-.16-.26-.25-.56,0-.83.23-.26.52-.37.86-.31.3.06.57.2.78.42.3.32.66.57.94.92.2.25.42.48.71.64.4.23.85.16,1.13-.2.23-.29.35-.64.3-1.01-.23-1.65-.9-3.13-1.82-4.5-.49-.73-1.16-.99-2.02-.72-.73.23-1.49.25-2.24.31-1.68.13-3.02.85-3.85,2.37-.48.87-.67,1.84-.68,2.82-.01,1.97.29,3.83,1.64,5.42.78.92,1.65,1.66,2.74,2.16.35.16.69.32,1.02.51.31.18.62.36.82.68.21.33.18.76-.05,1-.23.24-.67.28-.99.06-.26-.18-.5-.4-.73-.61-.3-.28-.64-.49-1.01-.64-.66-.27-1.41-.04-1.58.78-.06.29-.11.59-.12.89-.02.98.42,1.82.87,2.64.35.65.8,1.24,1.41,1.69.49.36.97.44,1.49.1.28-.18.58-.27.9-.3.42-.04.83-.05,1.25-.1,1-.11,1.92-.39,2.58-1.21.63-.77,1.1-1.62,1.25-2.61.12-.81.3-1.62.19-2.43ZM97.07,121.48c-.54.96-1.39,1.52-2.51,1.61-.22.02-.44,0-.69,0-.52-.12-1.05,0-1.57.14-.71.19-1.25-.02-1.66-.62-.44-.65-.82-1.32-.94-2.11-.03-.18-.05-.36-.03-.54.09-.66.64-.91,1.17-.5.33.26.68.49,1.04.71.61.37,1.47.31,1.95-.14.44-.41.52-1.18.24-1.82-.25-.56-.63-.96-1.16-1.24-.52-.26-1.03-.53-1.54-.8-1.93-.97-3.11-2.52-3.5-4.64-.26-1.41-.28-2.83.27-4.18.54-1.31,1.56-2.17,3.02-2.26.81-.05,1.63-.09,2.44-.23.74-.12,1.34.09,1.72.78.3.56.76,1.03.85,1.7,0,.04.03.08.03.11.02.32.1.67-.23.88-.3.2-.58,0-.82-.16-.4-.27-.83-.49-1.28-.63-.75-.24-1.43-.07-1.85.46-.45.57-.47,1.2-.1,1.9.32.62.89.98,1.47,1.28,1.15.6,2.12,1.41,2.99,2.36.45.49.74,1.07.94,1.71.33,1.06.49,2.13.46,3.24-.03,1.05-.2,2.07-.71,2.99Z"/>
  <path class="cls-1" d="M86.15,119.26c-.11-1.08-.34-2.12-.72-3.14-.54-1.44-1.2-2.82-2.05-4.11-1.13-1.71-2.66-2.88-4.56-3.59-1.94-.72-3.87.14-5.09,1.56-.83.96-1.24,2.1-1.42,3.31-.17,1.14.09,2.23.84,3.14.47.56,1.18.63,1.57-.09.24-.44.55-.83.89-1.2,1.03-1.17,2.92-1.11,3.83.59.23.43.15.8-.22,1.13-.13.12-.29.22-.44.3-.83.44-1.68.82-2.56,1.14-.43.16-.87.3-1.26.55-.47.3-.76.68-.66,1.29.24,1.45.67,2.83,1.52,4.05.95,1.35,2.13,2.44,3.68,3.03,1.08.41,2.2.6,3.27-.1.06-.04.14-.07.22-.08.9-.17,1.55-.71,2.04-1.45.88-1.34,1.28-2.82,1.3-4.64.04-.42-.1-1.05-.17-1.68ZM85.28,122.51c-.09.41-.14.83-.24,1.23-.28,1.18-1.02,2.01-2.06,2.58-1.18.65-2.38.5-3.57,0-.83-.35-1.46-.96-2.08-1.59-.84-.86-1.33-1.93-1.84-2.99-.19-.4-.25-.83-.29-1.28-.05-.61.23-.98.73-1.25.7-.38,1.42-.73,2.2-.92.65-.16,1.23-.48,1.75-.89.68-.55.8-1.3.41-2.01-.45-.83-1.14-1.37-1.92-1.73-.95-.43-1.92-.18-2.78.39-.32.21-.61.45-.91.68-.11.08-.21.19-.33.25-.44.22-.84.05-1.01-.41-.13-.35-.12-.71-.11-1.04-.1-2.18,1.49-3.77,2.99-4.39,1.02-.42,2.11-.28,3.07.26,1.54.86,2.79,2.07,3.72,3.57.47.76.88,1.56,1.26,2.38.49,1.06.8,2.17.97,3.31.19,1.28.33,2.57.05,3.86Z"/>
  <path class="cls-1" d="M148.67,116.36c-.09-.16-.18-.31-.3-.45-1.42-1.66-3.22-2.66-5.36-3.03-.9-.15-1.81.46-2.1,1.34-.18.52-.21,1.05-.16,1.6.08.82-.08,1.59-.46,2.32-1.28,2.42-2.57,4.82-4.05,7.13-.65,1.02-1.14,2.14-1.85,3.14-.75,1.06-1.43,2.17-2.13,3.26-.5.77-1.04,1.52-1.4,2.37-.46,1.09-.16,1.8.93,2.25.04.02.08.03.11.04,1.28.37,2.55.82,3.79.71.43,0,.73.01,1.03,0,2.05-.11,3.08-1.95,2.43-3.5-.35-.83-.19-1.64.26-2.41.15-.26.31-.51.43-.79.96-2.28,2.33-4.32,3.61-6.41.31-.51.68-.99.96-1.52.75-1.38,1.65-2.53,3.26-3.06,1.27-.42,1.63-1.78.99-2.96ZM147.55,118.39c-.17.13-.37.25-.57.32-1.29.43-2.15,1.37-2.79,2.5-.72,1.27-1.52,2.49-2.3,3.72-.81,1.26-1.52,2.58-2.18,3.92-.14.29-.31.56-.48.83-.46.74-.73,1.55-1,2.37-.15.46-.04.89.11,1.33.26.76.31,1.52-.24,2.21-.25.31-.56.5-.95.59-.45.1-.91.14-1.19.13-1.21.02-2.21-.22-3.17-.54-1.09-.37-1.42-.92-.74-2.2.44-.82,1.04-1.56,1.5-2.38,1.15-2.04,2.46-3.97,3.62-5.99,1.08-1.89,2.14-3.79,3.26-5.65.44-.72.72-1.51,1.03-2.29.13-.33.16-.7.15-1.06,0-.3-.02-.6,0-.9.11-1.21.98-1.84,2.18-1.49.64.19,1.22.51,1.8.82.71.38,1.34.86,1.9,1.45.3.32.47.7.53,1.11.07.49-.09.91-.49,1.22Z"/>
  <path class="cls-1" d="M160.67,126.55c-.19-1.49-.91-2.66-2.03-3.61-.4-.34-.9-.51-1.37-.73-1.17-.54-2.4-.71-3.68-.53-2.01.29-3.77,1.16-5.34,2.41-1.64,1.31-2.93,2.92-3.96,4.75-.74,1.31-1.04,2.7-1.1,3.55-.06,1.92.33,3.06,1.06,4.15,1.2,1.76,2.96,2.43,4.93,2.5,2.46.09,4.57-.98,6.47-2.46,1.62-1.26,2.82-2.87,3.79-4.66.91-1.67,1.48-3.43,1.23-5.38ZM159,131.17c-.59,1.19-1.28,2.3-2.21,3.25-1.23,1.26-2.59,2.37-4.19,3.15-.98.48-2.05.8-3.11.8-2.55,0-4.73-1.2-5.37-4.3-.25-1.21-.09-2.41.35-3.58.48-1.28,1.14-2.48,2-3.53,1.4-1.7,3.04-3.1,5.11-3.95,1.05-.44,2.13-.64,3.62-.69,1.03-.02,2.16.51,3.21,1.42.85.73,1.13,1.71,1.51,2.66.04.09.05.2.04.3-.07,1.54-.27,3.05-.97,4.46Z"/>
  <path class="cls-1" d="M83.26,25.83c0-1.74.04-3.47-.02-5.21-.03-1.04.76-1.63,1.51-1.65.93-.02,1.69.67,1.75,1.6.02.26,0,.52,0,.78,0,3.19,0,6.39,0,9.58,0,.79-.15.95-.94.96-.48,0-.96,0-1.44,0-.78,0-.87-.09-.87-.85,0-1.74,0-3.47,0-5.21Z"/>
  <path class="cls-1" d="M123.74,25.85c0-1.76.01-3.52,0-5.27,0-.68.29-1.15.87-1.45.57-.29,1.12-.17,1.63.19.51.36.77.8.76,1.45-.02,3.43-.01,6.87-.01,10.3,0,.12,0,.24,0,.36,0,.26-.14.43-.39.44-.8.01-1.6.02-2.4,0-.37-.01-.45-.16-.45-.63,0-1.8,0-3.59,0-5.39Z"/>
  <path class="cls-1" d="M82.79,121.13c-.27-.7-.73-1.24-1.52-1.26-.87-.02-1.65.3-2.2,1.01-.26.34-.41.74-.32,1.18.1.5.29.96.62,1.34.5.57,1.15.9,1.9.8,1.08-.14,1.67-.94,1.66-2.13,0-.32-.04-.64-.15-.94ZM81.89,122.98c-.32.51-.9.65-1.39.31-.31-.22-.57-.49-.71-.86-.26-.67-.02-1.09.58-1.44.58-.34,1.23-.19,1.58.33.13.2.15.28.15.79.02.28-.03.59-.21.87Z"/>
  <path class="cls-1" d="M154.57,125.33c-.69-.02-1.28.2-1.79.69-.56.54-1.06,1.13-1.55,1.74-.8,1-1.4,2.13-2.05,3.23-.4.67-.71,1.38-.82,2.17-.11.81.51,1.58,1.53,1.58.49-.03,1.08-.32,1.64-.74.57-.43.98-1,1.37-1.57,1.08-1.53,2.14-3.07,2.73-4.88.07-.21.15-.42.19-.63.17-.83-.41-1.58-1.26-1.6ZM154.91,127.21c.02.3-.12.68-.32,1.02-.97,1.76-2,3.49-3.4,4.96-.21.22-.43.42-.69.57-.31.18-.65.22-.96.03-.29-.18-.3-.49-.25-.81.06-.38.2-.72.35-1.07.6-1.38,1.51-2.57,2.33-3.82.36-.55.85-1,1.34-1.45.12-.11.26-.19.39-.27.28-.17.58-.29.9-.08.28.19.33.48.3.91Z"/>
</svg>